<svg xmlns="http://www.w3.org/2000/svg" xml:space="preserve" width="2048" height="2048" style="shape-rendering:geometricPrecision;text-rendering:geometricPrecision;image-rendering:optimizeQuality;fill-rule:evenodd;clip-rule:evenodd"><defs><style>.fil0{fill:#424242;fill-rule:nonzero}</style></defs><g id="Layer_x0020_1"><g id="_341226544"><path id="_341228032" class="fil0" d="M295.129 696.725c-17.19-3.934-34.317 6.81-38.251 24-3.934 17.19 6.81 34.317 24 38.251 262.279 60.12 516.675 47.491 764.709-23.797 246.848-70.946 487.128-199.96 722.414-373.085 14.22-10.424 17.3-30.405 6.875-44.625-10.424-14.22-30.405-17.3-44.626-6.875-229.342 168.752-462.95 294.333-702.162 363.084-238.03 68.413-481.885 80.598-732.958 23.046z"/><path id="_341227456" class="fil0" d="M440.947 749.179h243.207l55.25 31.75L590.176 1039.4l-27.624 47.85-27.626-47.85-149.228-258.471z"/><path id="_341227360" class="fil0" d="m815.911 739.165 238.239-48.867 60.5 20.001-94.23 283.193-17.44 52.438-36.682-41.31-198.137-223.204z"/><path id="_341227096" class="fil0" d="m1166.48 643.993 224.45-93.554 63.25 8.001-38.19 296.004-7.08 54.894-43.92-33.519-237.25-181.076z"/><path id="_341227024" class="fil0" d="m1462.71 506.546 209.04-124.474 63.75-.752 4.06 298.431.75 55.172-48.13-26.921-260.47-145.706z"/><path id="_341227600" class="fil0" d="M1756.25 1415.31c17.19-3.934 27.934-21.061 24-38.251-3.934-17.19-21.061-27.934-38.251-24-251.073 57.551-494.928 45.366-732.958-23.046-239.214-68.752-472.822-194.333-702.164-363.085-14.22-10.424-34.201-7.345-44.626 6.875-10.424 14.22-7.345 34.202 6.875 44.626 235.285 173.125 475.564 302.138 722.415 373.085 248.033 71.288 502.43 83.917 764.71 23.797z"/><path id="_341226952" class="fil0" d="m1651.43 1437.27-149.23 258.47-27.62 47.85-27.63-47.85-149.22-258.47 55.25-31.75h243.2z"/><path id="_341227216" class="fil0" d="m1268.97 1437.75-198.14 223.2-36.68 41.32-17.44-52.44-94.231-283.19 60.501-20.01 238.24 48.87z"/><path id="_341227288" class="fil0" d="m909.394 1351.08-237.252 181.08-43.917 33.51-7.083-54.89-38.188-296 63.25-8 224.44 93.55z"/><path id="_341226976" class="fil0" d="m605.421 1218.63-260.475 145.71-48.124 26.92.749-55.17 4.054-298.43 63.752.75 209.044 124.47z"/><path id="_341227048" class="fil0" d="M671.495 1198.48c-17.604.552-31.427 15.272-30.875 32.876.551 17.604 15.272 31.427 32.876 30.875 192.24-6.113 380.188-49.522 564.526-124.205 183.516-74.348 363.583-179.733 540.858-310.174 14.22-10.424 17.3-30.405 6.875-44.625-10.424-14.22-30.405-17.3-44.626-6.876-173.032 127.318-348.54 230.08-527.107 302.424-177.744 72.011-358.402 113.85-542.527 119.705z"/><path id="_341226712" class="fil0" d="m1177.36 1109.75 224.44-93.55 63.25 8-38.18 296-7.09 54.89-43.91-33.51-237.26-181.08z"/><path id="_341226256" class="fil0" d="m1473.59 972.302 209.04-124.474 63.75-.751 4.06 298.433.75 55.17-48.13-26.92-260.47-145.71z"/></g></g><path style="fill:none" d="M0 0h2048v2048H0z"/></svg>