<svg xmlns="http://www.w3.org/2000/svg" viewBox="0 0 25 25"><defs><style>.cls-1{fill:#231f20}</style></defs><g id="wardrobe"><path class="cls-1" d="M21.08 1H3.92a.92.92 0 0 0-.92.92V21.5a.5.5 0 0 0 .5.5H4v1.5a.5.5 0 0 0 .5.5h16a.5.5 0 0 0 .5-.5V22h.5a.5.5 0 0 0 .5-.5V1.92a.92.92 0 0 0-.92-.92zM4.5 21H4v-3h8v3zM4 17v-3h8v3zm9-3h8v3h-8zm8-12v11h-8V2zM4 2h8v11H4zm16 21H5v-1h15zm1-2h-8v-3h8z"/><path class="cls-1" d="M8.5 15h-1a.5.5 0 0 0 0 1h1a.5.5 0 0 0 0-1zM8.5 19h-1a.5.5 0 0 0 0 1h1a.5.5 0 0 0 0-1zM17.5 15h-1a.5.5 0 0 0 0 1h1a.5.5 0 0 0 0-1zM16.5 20h1a.5.5 0 0 0 0-1h-1a.5.5 0 0 0 0 1zM10.5 8a.5.5 0 0 0-.5.5v1a.5.5 0 0 0 1 0v-1a.5.5 0 0 0-.5-.5zM14.5 10a.5.5 0 0 0 .5-.5v-1a.5.5 0 0 0-1 0v1a.5.5 0 0 0 .5.5z"/></g></svg>