<svg xmlns="http://www.w3.org/2000/svg" viewBox="0 0 25 25"><defs><style>.cls-1{fill:#231f20}</style></defs><g id="kitchen"><path class="cls-1" d="M23.5 13h-22a.5.5 0 0 0-.5.5v10a.5.5 0 0 0 .5.5h22a.5.5 0 0 0 .5-.5v-10a.5.5 0 0 0-.5-.5zm-.5 4h-6v-3h6zM8 14v3H2v-3zm-6 4h6v5H2zm7 5v-9h7v9zm8 0v-5h6v5zM1.5 7h7a.5.5 0 0 0 .5-.5v-5a.5.5 0 0 0-.5-.5h-7a.5.5 0 0 0-.5.5v5a.5.5 0 0 0 .5.5zM2 2h6v4H2zM23.5 1h-7a.5.5 0 0 0-.5.5v5a.5.5 0 0 0 .5.5h7a.5.5 0 0 0 .5-.5v-5a.5.5 0 0 0-.5-.5zM23 6h-6V2h6z"/><path class="cls-1" d="M8.08 9.22a.5.5 0 0 0 .42.78h8a.5.5 0 0 0 .42-.78L15 6.35V1.5a.5.5 0 0 0-.5-.5h-4a.5.5 0 0 0-.5.5v4.85zM9.43 9l1.34-2h3.46l1.34 2zM11 2h3v4h-3zM14.5 18h-4a.5.5 0 0 0-.5.5v3a.5.5 0 0 0 .5.5h4a.5.5 0 0 0 .5-.5v-3a.5.5 0 0 0-.5-.5zm-.5 3h-3v-2h3zM10.52 17a.5.5 0 0 0 0-1 .49.49 0 0 0-.49.5.5.5 0 0 0 .49.5zM12.52 17a.5.5 0 0 0 0-1 .49.49 0 0 0-.49.5.5.5 0 0 0 .49.5zM14.52 16a.49.49 0 0 0-.49.5.5.5 0 1 0 .5-.5zM4.5 16h1a.5.5 0 0 0 0-1h-1a.5.5 0 0 0 0 1zM5.5 4h-1a.5.5 0 0 0 0 1h1a.5.5 0 0 0 0-1zM19.5 5h1a.5.5 0 0 0 0-1h-1a.5.5 0 0 0 0 1zM5.5 19h-1a.5.5 0 0 0 0 1h1a.5.5 0 0 0 0-1zM19.5 16h1a.5.5 0 0 0 0-1h-1a.5.5 0 0 0 0 1zM20.5 19h-1a.5.5 0 0 0 0 1h1a.5.5 0 0 0 0-1z"/></g></svg>